stateDiagram
    [*] --> Menu : Power on
    Menu --> Training
    Menu --> Start_Game
    Menu --> Hi_score_view 

    Training --> Menu : Die
    Training --> Menu : Reset


    Start_Game --> Level_1 : Delay / Press mouse btn to start
    Level_1 --> Level_2 : Win
    Level_2 --> Level_3 : Win
    

    Level_1 --> Hi_score_input : Die
    Level_2 --> Hi_score_input : Die
    Level_3 --> Hi_score_input : Die/Win

    Level_1 --> Paused : pause_btn
    Paused --> Level_1  : pause_btn
    Level_2 --> Paused : pause_btn
    Paused --> Level_2  : pause_btn
    Level_3 --> Paused : pause_btn
    Paused --> Level_3  : pause_btn
    Hi_score_input --> Hi_score_view

    Hi_score_view --> Menu