stateDiagram
    [*] --> start
    %%Background/pipes etc start moving

    start --> fall
    fall --> jump : btn
    jump --> fall : x time

    fall --> collide : pipe/ground hit
    jump --> collide : pipe/ground hit
    jump --> win : all pipes crossed
    fall --> win

    collide --> start : lives left
    collide --> dead : out of lives

    win --> [*]
    dead --> [*]